<mxfile host="app.diagrams.net" modified="2024-07-17T08:09:34.569Z" agent="Mozilla/5.0 (Macintosh; Intel Mac OS X 10_15_7) AppleWebKit/537.36 (KHTML, like Gecko) Chrome/126.0.0.0 Safari/537.36" etag="tMuSZIxwfRjlJjJHrgTj" version="24.7.0" type="github">
  <diagram name="페이지-1" id="WGGKGSYVUO6RWn2XUoMv">
    <mxGraphModel dx="1240" dy="1942" grid="1" gridSize="10" guides="1" tooltips="1" connect="1" arrows="1" fold="1" page="1" pageScale="1" pageWidth="827" pageHeight="1169" math="0" shadow="0">
      <root>
        <mxCell id="0" />
        <mxCell id="1" parent="0" />
        <mxCell id="z4PQyPkQFhb1nWLMUpUr-28" style="edgeStyle=orthogonalEdgeStyle;rounded=0;orthogonalLoop=1;jettySize=auto;html=1;exitX=0;exitY=0.5;exitDx=0;exitDy=0;entryX=1;entryY=0.5;entryDx=0;entryDy=0;endArrow=none;endFill=0;" edge="1" parent="1" source="z4PQyPkQFhb1nWLMUpUr-2" target="z4PQyPkQFhb1nWLMUpUr-19">
          <mxGeometry relative="1" as="geometry" />
        </mxCell>
        <mxCell id="z4PQyPkQFhb1nWLMUpUr-2" value="학생" style="rounded=0;whiteSpace=wrap;html=1;" vertex="1" parent="1">
          <mxGeometry x="580" y="300" width="120" height="60" as="geometry" />
        </mxCell>
        <mxCell id="z4PQyPkQFhb1nWLMUpUr-6" value="학번" style="ellipse;whiteSpace=wrap;html=1;" vertex="1" parent="1">
          <mxGeometry x="620" y="410" width="120" height="80" as="geometry" />
        </mxCell>
        <mxCell id="z4PQyPkQFhb1nWLMUpUr-7" value="교수코드" style="ellipse;whiteSpace=wrap;html=1;" vertex="1" parent="1">
          <mxGeometry x="30" y="-50" width="120" height="80" as="geometry" />
        </mxCell>
        <mxCell id="z4PQyPkQFhb1nWLMUpUr-8" value="과목코드" style="ellipse;whiteSpace=wrap;html=1;" vertex="1" parent="1">
          <mxGeometry x="80" y="430" width="120" height="80" as="geometry" />
        </mxCell>
        <mxCell id="z4PQyPkQFhb1nWLMUpUr-9" value="학과코드" style="ellipse;whiteSpace=wrap;html=1;" vertex="1" parent="1">
          <mxGeometry x="700" width="120" height="80" as="geometry" />
        </mxCell>
        <mxCell id="z4PQyPkQFhb1nWLMUpUr-26" style="rounded=0;orthogonalLoop=1;jettySize=auto;html=1;endArrow=none;endFill=0;" edge="1" parent="1" source="z4PQyPkQFhb1nWLMUpUr-10" target="z4PQyPkQFhb1nWLMUpUr-17">
          <mxGeometry relative="1" as="geometry" />
        </mxCell>
        <mxCell id="z4PQyPkQFhb1nWLMUpUr-10" value="학과" style="rounded=0;whiteSpace=wrap;html=1;strokeColor=default;align=center;verticalAlign=middle;fontFamily=Helvetica;fontSize=12;fontColor=default;fillColor=default;" vertex="1" parent="1">
          <mxGeometry x="580" y="70" width="120" height="60" as="geometry" />
        </mxCell>
        <mxCell id="z4PQyPkQFhb1nWLMUpUr-32" style="edgeStyle=orthogonalEdgeStyle;rounded=0;orthogonalLoop=1;jettySize=auto;html=1;exitX=1;exitY=0.5;exitDx=0;exitDy=0;endArrow=none;endFill=0;" edge="1" parent="1" source="z4PQyPkQFhb1nWLMUpUr-12" target="z4PQyPkQFhb1nWLMUpUr-16">
          <mxGeometry relative="1" as="geometry" />
        </mxCell>
        <mxCell id="z4PQyPkQFhb1nWLMUpUr-12" value="교수" style="rounded=0;whiteSpace=wrap;html=1;" vertex="1" parent="1">
          <mxGeometry x="120" y="70" width="120" height="60" as="geometry" />
        </mxCell>
        <mxCell id="z4PQyPkQFhb1nWLMUpUr-30" style="edgeStyle=orthogonalEdgeStyle;rounded=0;orthogonalLoop=1;jettySize=auto;html=1;exitX=0.5;exitY=0;exitDx=0;exitDy=0;entryX=0.5;entryY=1;entryDx=0;entryDy=0;endArrow=none;endFill=0;" edge="1" parent="1" source="z4PQyPkQFhb1nWLMUpUr-13" target="z4PQyPkQFhb1nWLMUpUr-18">
          <mxGeometry relative="1" as="geometry" />
        </mxCell>
        <mxCell id="z4PQyPkQFhb1nWLMUpUr-13" value="과목" style="rounded=0;whiteSpace=wrap;html=1;" vertex="1" parent="1">
          <mxGeometry x="120" y="310" width="120" height="60" as="geometry" />
        </mxCell>
        <mxCell id="z4PQyPkQFhb1nWLMUpUr-33" style="edgeStyle=orthogonalEdgeStyle;rounded=0;orthogonalLoop=1;jettySize=auto;html=1;exitX=1;exitY=0.5;exitDx=0;exitDy=0;entryX=0;entryY=0.5;entryDx=0;entryDy=0;endArrow=none;endFill=0;" edge="1" parent="1" source="z4PQyPkQFhb1nWLMUpUr-16" target="z4PQyPkQFhb1nWLMUpUr-10">
          <mxGeometry relative="1" as="geometry" />
        </mxCell>
        <mxCell id="z4PQyPkQFhb1nWLMUpUr-16" value="소속" style="rhombus;whiteSpace=wrap;html=1;" vertex="1" parent="1">
          <mxGeometry x="360" y="60" width="80" height="80" as="geometry" />
        </mxCell>
        <mxCell id="z4PQyPkQFhb1nWLMUpUr-27" style="edgeStyle=orthogonalEdgeStyle;rounded=0;orthogonalLoop=1;jettySize=auto;html=1;entryX=0.5;entryY=0;entryDx=0;entryDy=0;endArrow=none;endFill=0;" edge="1" parent="1" source="z4PQyPkQFhb1nWLMUpUr-17" target="z4PQyPkQFhb1nWLMUpUr-2">
          <mxGeometry relative="1" as="geometry" />
        </mxCell>
        <mxCell id="z4PQyPkQFhb1nWLMUpUr-17" value="소속" style="rhombus;whiteSpace=wrap;html=1;" vertex="1" parent="1">
          <mxGeometry x="600" y="150" width="80" height="80" as="geometry" />
        </mxCell>
        <mxCell id="z4PQyPkQFhb1nWLMUpUr-31" style="edgeStyle=orthogonalEdgeStyle;rounded=0;orthogonalLoop=1;jettySize=auto;html=1;exitX=0.5;exitY=0;exitDx=0;exitDy=0;entryX=0.5;entryY=1;entryDx=0;entryDy=0;endArrow=none;endFill=0;" edge="1" parent="1" source="z4PQyPkQFhb1nWLMUpUr-18" target="z4PQyPkQFhb1nWLMUpUr-12">
          <mxGeometry relative="1" as="geometry" />
        </mxCell>
        <mxCell id="z4PQyPkQFhb1nWLMUpUr-18" value="강의" style="rhombus;whiteSpace=wrap;html=1;" vertex="1" parent="1">
          <mxGeometry x="140" y="170" width="80" height="80" as="geometry" />
        </mxCell>
        <mxCell id="z4PQyPkQFhb1nWLMUpUr-29" style="edgeStyle=orthogonalEdgeStyle;rounded=0;orthogonalLoop=1;jettySize=auto;html=1;exitX=0;exitY=0.5;exitDx=0;exitDy=0;entryX=1;entryY=0.5;entryDx=0;entryDy=0;endArrow=none;endFill=0;" edge="1" parent="1" source="z4PQyPkQFhb1nWLMUpUr-19" target="z4PQyPkQFhb1nWLMUpUr-13">
          <mxGeometry relative="1" as="geometry" />
        </mxCell>
        <mxCell id="z4PQyPkQFhb1nWLMUpUr-19" value="수강" style="rhombus;whiteSpace=wrap;html=1;" vertex="1" parent="1">
          <mxGeometry x="360" y="300" width="80" height="80" as="geometry" />
        </mxCell>
      </root>
    </mxGraphModel>
  </diagram>
</mxfile>
